<svg xmlns="http://www.w3.org/2000/svg" viewBox="0 0 640 292" role="img">
<rect width="640" height="292" fill="#ffffff"/>
<line x1="0" y1="58.4" x2="640" y2="58.4" stroke="#dde3ec" stroke-width="1"  stroke-linecap="round"/><line x1="0" y1="116.8" x2="640" y2="116.8" stroke="#dde3ec" stroke-width="1"  stroke-linecap="round"/><line x1="0" y1="175.2" x2="640" y2="175.2" stroke="#dde3ec" stroke-width="1"  stroke-linecap="round"/><line x1="0" y1="233.6" x2="640" y2="233.6" stroke="#dde3ec" stroke-width="1"  stroke-linecap="round"/>
<text x="320" y="30" font-size="14" fill="#26313f" text-anchor="middle" font-weight="700" font-family="Hiragino Sans, Noto Sans JP, Meiryo, sans-serif">アルゴリズム取引の主な類型</text><rect x="45" y="58" width="260" height="100" rx="8" fill="#ffffff" stroke="#2b4a8b" stroke-width="2"/><rect x="45" y="58" width="260" height="30" rx="8" fill="#2b4a8b"/><rect x="45" y="80" width="260" height="8" fill="#2b4a8b"/><text x="175" y="79" font-size="13.5" fill="#fff" text-anchor="middle" font-weight="700" font-family="Hiragino Sans, Noto Sans JP, Meiryo, sans-serif">執行アルゴリズム</text><text x="59" y="110" font-size="11" fill="#26313f" text-anchor="start"  font-family="Hiragino Sans, Noto Sans JP, Meiryo, sans-serif">大口注文を小分けにして</text><text x="59" y="130" font-size="11" fill="#26313f" text-anchor="start"  font-family="Hiragino Sans, Noto Sans JP, Meiryo, sans-serif">市場への影響を抑えながら執行</text><text x="59" y="150" font-size="11" fill="#26313f" text-anchor="start"  font-family="Hiragino Sans, Noto Sans JP, Meiryo, sans-serif">（機関投資家の標準装備）</text><rect x="335" y="58" width="260" height="100" rx="8" fill="#ffffff" stroke="#1f6e50" stroke-width="2"/><rect x="335" y="58" width="260" height="30" rx="8" fill="#1f6e50"/><rect x="335" y="80" width="260" height="8" fill="#1f6e50"/><text x="465" y="79" font-size="13.5" fill="#fff" text-anchor="middle" font-weight="700" font-family="Hiragino Sans, Noto Sans JP, Meiryo, sans-serif">マーケットメイク型</text><text x="349" y="110" font-size="11" fill="#26313f" text-anchor="start"  font-family="Hiragino Sans, Noto Sans JP, Meiryo, sans-serif">売り買い両方の気配を出し続け</text><text x="349" y="130" font-size="11" fill="#26313f" text-anchor="start"  font-family="Hiragino Sans, Noto Sans JP, Meiryo, sans-serif">小さな利ざやを高頻度で獲得</text><text x="349" y="150" font-size="11" fill="#26313f" text-anchor="start"  font-family="Hiragino Sans, Noto Sans JP, Meiryo, sans-serif">（流動性の供給者でもある）</text><rect x="45" y="172" width="260" height="100" rx="8" fill="#ffffff" stroke="#a3690f" stroke-width="2"/><rect x="45" y="172" width="260" height="30" rx="8" fill="#a3690f"/><rect x="45" y="194" width="260" height="8" fill="#a3690f"/><text x="175" y="193" font-size="13.5" fill="#fff" text-anchor="middle" font-weight="700" font-family="Hiragino Sans, Noto Sans JP, Meiryo, sans-serif">裁定（アービトラージ）型</text><text x="59" y="224" font-size="11" fill="#26313f" text-anchor="start"  font-family="Hiragino Sans, Noto Sans JP, Meiryo, sans-serif">現物と先物・市場間の</text><text x="59" y="244" font-size="11" fill="#26313f" text-anchor="start"  font-family="Hiragino Sans, Noto Sans JP, Meiryo, sans-serif">わずかな価格差を瞬時に解消</text><text x="59" y="264" font-size="11" fill="#26313f" text-anchor="start"  font-family="Hiragino Sans, Noto Sans JP, Meiryo, sans-serif">（価格の歪みを埋める）</text><rect x="335" y="172" width="260" height="100" rx="8" fill="#ffffff" stroke="#c73e2e" stroke-width="2"/><rect x="335" y="172" width="260" height="30" rx="8" fill="#c73e2e"/><rect x="335" y="194" width="260" height="8" fill="#c73e2e"/><text x="465" y="193" font-size="13.5" fill="#fff" text-anchor="middle" font-weight="700" font-family="Hiragino Sans, Noto Sans JP, Meiryo, sans-serif">HFT（高頻度取引）</text><text x="349" y="224" font-size="11" fill="#26313f" text-anchor="start"  font-family="Hiragino Sans, Noto Sans JP, Meiryo, sans-serif">ミリ秒〜マイクロ秒単位で</text><text x="349" y="244" font-size="11" fill="#26313f" text-anchor="start"  font-family="Hiragino Sans, Noto Sans JP, Meiryo, sans-serif">上記戦略を超高速に実行</text><text x="349" y="264" font-size="11" fill="#26313f" text-anchor="start"  font-family="Hiragino Sans, Noto Sans JP, Meiryo, sans-serif">（日本では登録制の対象）</text>
</svg>