<svg xmlns="http://www.w3.org/2000/svg" viewBox="0 0 640 310" role="img">
<rect width="640" height="310" fill="#ffffff"/>
<line x1="0" y1="62" x2="640" y2="62" stroke="#dde3ec" stroke-width="1"  stroke-linecap="round"/><line x1="0" y1="124" x2="640" y2="124" stroke="#dde3ec" stroke-width="1"  stroke-linecap="round"/><line x1="0" y1="186" x2="640" y2="186" stroke="#dde3ec" stroke-width="1"  stroke-linecap="round"/><line x1="0" y1="248" x2="640" y2="248" stroke="#dde3ec" stroke-width="1"  stroke-linecap="round"/>
<line x1="180" y1="50" x2="180" y2="260" stroke="#c73e2e" stroke-width="2"  stroke-linecap="round"/><rect x="158" y="90" width="44" height="120" rx="1.5" fill="#c73e2e"/><text x="180" y="292" font-size="13" fill="#c73e2e" text-anchor="middle" font-weight="700" font-family="Hiragino Sans, Noto Sans JP, Meiryo, sans-serif">陽線（終値＞始値）</text><line x1="180" y1="50" x2="250" y2="50" stroke="#dde3ec" stroke-width="1"  stroke-linecap="round"/><text x="256" y="54" font-size="13" fill="#26313f" text-anchor="start"  font-family="Hiragino Sans, Noto Sans JP, Meiryo, sans-serif">高値</text><line x1="202" y1="90" x2="265" y2="70" stroke="#dde3ec" stroke-width="1"  stroke-linecap="round"/><text x="270" y="72" font-size="13" fill="#26313f" text-anchor="start"  font-family="Hiragino Sans, Noto Sans JP, Meiryo, sans-serif">実体の上端＝終値</text><line x1="202" y1="210" x2="265" y2="218" stroke="#dde3ec" stroke-width="1"  stroke-linecap="round"/><text x="270" y="222" font-size="13" fill="#26313f" text-anchor="start"  font-family="Hiragino Sans, Noto Sans JP, Meiryo, sans-serif">実体の下端＝始値</text><line x1="180" y1="260" x2="250" y2="260" stroke="#dde3ec" stroke-width="1"  stroke-linecap="round"/><text x="256" y="264" font-size="13" fill="#26313f" text-anchor="start"  font-family="Hiragino Sans, Noto Sans JP, Meiryo, sans-serif">安値</text><text x="120" y="72" font-size="13" fill="#57606e" text-anchor="end"  font-family="Hiragino Sans, Noto Sans JP, Meiryo, sans-serif">上ヒゲ</text><text x="120" y="245" font-size="13" fill="#57606e" text-anchor="end"  font-family="Hiragino Sans, Noto Sans JP, Meiryo, sans-serif">下ヒゲ</text><text x="120" y="150" font-size="13" fill="#26313f" text-anchor="end" font-weight="700" font-family="Hiragino Sans, Noto Sans JP, Meiryo, sans-serif">実体</text><line x1="480" y1="60" x2="480" y2="265" stroke="#0075c2" stroke-width="2"  stroke-linecap="round"/><rect x="458" y="100" width="44" height="115" rx="1.5" fill="#0075c2"/><text x="480" y="292" font-size="13" fill="#0075c2" text-anchor="middle" font-weight="700" font-family="Hiragino Sans, Noto Sans JP, Meiryo, sans-serif">陰線（終値＜始値）</text><line x1="502" y1="100" x2="560" y2="92" stroke="#dde3ec" stroke-width="1"  stroke-linecap="round"/><text x="565" y="96" font-size="13" fill="#26313f" text-anchor="start"  font-family="Hiragino Sans, Noto Sans JP, Meiryo, sans-serif">始値</text><line x1="502" y1="215" x2="560" y2="225" stroke="#dde3ec" stroke-width="1"  stroke-linecap="round"/><text x="565" y="229" font-size="13" fill="#26313f" text-anchor="start"  font-family="Hiragino Sans, Noto Sans JP, Meiryo, sans-serif">終値</text>
</svg>