<svg xmlns="http://www.w3.org/2000/svg" viewBox="0 0 640 300" role="img">
<rect width="640" height="300" fill="#ffffff"/>
<line x1="0" y1="60" x2="640" y2="60" stroke="#dde3ec" stroke-width="1"  stroke-linecap="round"/><line x1="0" y1="120" x2="640" y2="120" stroke="#dde3ec" stroke-width="1"  stroke-linecap="round"/><line x1="0" y1="180" x2="640" y2="180" stroke="#dde3ec" stroke-width="1"  stroke-linecap="round"/><line x1="0" y1="240" x2="640" y2="240" stroke="#dde3ec" stroke-width="1"  stroke-linecap="round"/>
<text x="320" y="28" font-size="13" fill="#26313f" text-anchor="middle" font-weight="700" font-family="Hiragino Sans, Noto Sans JP, Meiryo, sans-serif">ビットコインの急騰・急落サイクル（模式図・概数）</text><polyline points="50,250 110,240 150,180 180,60 210,160 240,230 290,235 340,200 380,90 410,55 450,150 480,215 520,190 560,120 590,100" fill="none" stroke="#26313f" stroke-width="2.5"  stroke-linejoin="round" stroke-linecap="round"/><circle cx="180" cy="60" r="7" fill="none" stroke="#0075c2" stroke-width="2"/><text x="180" y="45" font-size="11" fill="#0075c2" text-anchor="middle" font-weight="700" font-family="Hiragino Sans, Noto Sans JP, Meiryo, sans-serif">2017年末</text><text x="238" y="255" font-size="10.5" fill="#0075c2" text-anchor="middle"  font-family="Hiragino Sans, Noto Sans JP, Meiryo, sans-serif">▲約8割下落</text><circle cx="410" cy="55" r="7" fill="none" stroke="#0075c2" stroke-width="2"/><text x="410" y="40" font-size="11" fill="#0075c2" text-anchor="middle" font-weight="700" font-family="Hiragino Sans, Noto Sans JP, Meiryo, sans-serif">2021年</text><text x="480" y="240" font-size="10.5" fill="#0075c2" text-anchor="middle"  font-family="Hiragino Sans, Noto Sans JP, Meiryo, sans-serif">▲約7割下落</text><text x="320" y="285" font-size="11" fill="#57606e" text-anchor="middle"  font-family="Hiragino Sans, Noto Sans JP, Meiryo, sans-serif">急騰と大幅下落を繰り返してきた。過去のサイクルの反復が将来も続く保証はない</text>
</svg>