<svg xmlns="http://www.w3.org/2000/svg" viewBox="0 0 640 280" role="img">
<rect width="640" height="280" fill="#ffffff"/>
<line x1="0" y1="56" x2="640" y2="56" stroke="#dde3ec" stroke-width="1"  stroke-linecap="round"/><line x1="0" y1="112" x2="640" y2="112" stroke="#dde3ec" stroke-width="1"  stroke-linecap="round"/><line x1="0" y1="168" x2="640" y2="168" stroke="#dde3ec" stroke-width="1"  stroke-linecap="round"/><line x1="0" y1="224" x2="640" y2="224" stroke="#dde3ec" stroke-width="1"  stroke-linecap="round"/>
<text x="320" y="26" font-size="13" fill="#26313f" text-anchor="middle" font-weight="700" font-family="Hiragino Sans, Noto Sans JP, Meiryo, sans-serif">デイトレード：その日のうちに完結させ、翌日に持ち越さない</text><line x1="70" y1="60" x2="70" y2="210" stroke="#dde3ec" stroke-width="1.5"  stroke-linecap="round"/><line x1="430" y1="60" x2="430" y2="210" stroke="#dde3ec" stroke-width="1.5"  stroke-linecap="round"/><text x="70" y="232" font-size="11" fill="#57606e" text-anchor="middle" font-weight="700" font-family="Hiragino Sans, Noto Sans JP, Meiryo, sans-serif">寄付き</text><text x="430" y="232" font-size="11" fill="#57606e" text-anchor="middle" font-weight="700" font-family="Hiragino Sans, Noto Sans JP, Meiryo, sans-serif">大引け</text><polyline points="70,160 110,140 150,155 200,115 250,130 300,100 350,118 430,95" fill="none" stroke="#26313f" stroke-width="2.2"  stroke-linejoin="round" stroke-linecap="round"/><line x1="150" y1="190" x2="150" y2="160" stroke="#c73e2e" stroke-width="2.2"  stroke-linecap="round"/><polygon points="150,160 153.91468980700108,168.1040239211741 146.08531019299892,168.1040239211741" fill="#c73e2e"/><text x="150" y="205" font-size="10.5" fill="#c73e2e" text-anchor="middle"  font-family="Hiragino Sans, Noto Sans JP, Meiryo, sans-serif">仕掛け</text><line x1="350" y1="85" x2="350" y2="112" stroke="#0075c2" stroke-width="2.2"  stroke-linecap="round"/><polygon points="350,112 346.0853101929989,103.89597607882591 353.9146898070011,103.89597607882591" fill="#0075c2"/><text x="350" y="76" font-size="10.5" fill="#0075c2" text-anchor="middle"  font-family="Hiragino Sans, Noto Sans JP, Meiryo, sans-serif">手仕舞い</text><rect x="450" y="70" width="160" height="130" rx="8" fill="#ffffff" stroke="#0075c2" stroke-width="2"/><text x="530" y="94" font-size="12" fill="#0075c2" text-anchor="middle" font-weight="700" font-family="Hiragino Sans, Noto Sans JP, Meiryo, sans-serif">持ち越さない理由</text><text x="462" y="118" font-size="10.5" fill="#57606e" text-anchor="start"  font-family="Hiragino Sans, Noto Sans JP, Meiryo, sans-serif">夜間・海外市場の急変や</text><text x="462" y="136" font-size="10.5" fill="#57606e" text-anchor="start"  font-family="Hiragino Sans, Noto Sans JP, Meiryo, sans-serif">決算・要人発言による</text><text x="462" y="154" font-size="10.5" fill="#57606e" text-anchor="start"  font-family="Hiragino Sans, Noto Sans JP, Meiryo, sans-serif">翌朝の窓開けリスクを</text><text x="462" y="172" font-size="10.5" fill="#26313f" text-anchor="start"  font-family="Hiragino Sans, Noto Sans JP, Meiryo, sans-serif">構造的に遮断する</text><text x="320" y="262" font-size="11" fill="#57606e" text-anchor="middle"  font-family="Hiragino Sans, Noto Sans JP, Meiryo, sans-serif">保有時間：数分〜数時間 ／ 判断材料：当日の値動き・出来高・板 ／ 損益は毎日確定する</text>
</svg>