<svg xmlns="http://www.w3.org/2000/svg" viewBox="0 0 640 300" role="img">
<rect width="640" height="300" fill="#ffffff"/>
<line x1="0" y1="60" x2="640" y2="60" stroke="#dde3ec" stroke-width="1"  stroke-linecap="round"/><line x1="0" y1="120" x2="640" y2="120" stroke="#dde3ec" stroke-width="1"  stroke-linecap="round"/><line x1="0" y1="180" x2="640" y2="180" stroke="#dde3ec" stroke-width="1"  stroke-linecap="round"/><line x1="0" y1="240" x2="640" y2="240" stroke="#dde3ec" stroke-width="1"  stroke-linecap="round"/>
<polyline points="40,60 70,95 95,120" fill="none" stroke="#57606e" stroke-width="1.5" stroke-dasharray="3 3" stroke-linejoin="round" stroke-linecap="round"/><line x1="120" y1="105" x2="120" y2="175" stroke="#0075c2" stroke-width="2"  stroke-linecap="round"/><rect x="109" y="115" width="22" height="50" rx="1.5" fill="#0075c2"/><line x1="160" y1="85" x2="160" y2="190" stroke="#c73e2e" stroke-width="2"  stroke-linecap="round"/><rect x="149" y="95" width="22" height="83" rx="1.5" fill="#c73e2e"/><rect x="140" y="88" width="42" height="97" rx="4" fill="none" stroke="#c73e2e" stroke-width="1.5" stroke-dasharray="4 3"/><text x="140" y="230" font-size="13" fill="#c73e2e" text-anchor="middle" font-weight="700" font-family="Hiragino Sans, Noto Sans JP, Meiryo, sans-serif">陽の包み足</text><text x="140" y="252" font-size="12" fill="#57606e" text-anchor="middle"  font-family="Hiragino Sans, Noto Sans JP, Meiryo, sans-serif">前の実体を丸ごと包む</text><text x="140" y="270" font-size="12" fill="#57606e" text-anchor="middle"  font-family="Hiragino Sans, Noto Sans JP, Meiryo, sans-serif">安値圏なら底打ち候補</text><polyline points="260,190 290,150 315,120" fill="none" stroke="#57606e" stroke-width="1.5" stroke-dasharray="3 3" stroke-linejoin="round" stroke-linecap="round"/><line x1="340" y1="95" x2="340" y2="165" stroke="#c73e2e" stroke-width="2"  stroke-linecap="round"/><rect x="329" y="105" width="22" height="50" rx="1.5" fill="#c73e2e"/><line x1="380" y1="75" x2="380" y2="195" stroke="#0075c2" stroke-width="2"  stroke-linecap="round"/><rect x="369" y="85" width="22" height="95" rx="1.5" fill="#0075c2"/><text x="360" y="230" font-size="13" fill="#0075c2" text-anchor="middle" font-weight="700" font-family="Hiragino Sans, Noto Sans JP, Meiryo, sans-serif">陰の包み足</text><text x="360" y="252" font-size="12" fill="#57606e" text-anchor="middle"  font-family="Hiragino Sans, Noto Sans JP, Meiryo, sans-serif">高値圏なら天井候補</text><line x1="510" y1="70" x2="510" y2="210" stroke="#0075c2" stroke-width="2"  stroke-linecap="round"/><rect x="497" y="80" width="26" height="115" rx="1.5" fill="#0075c2"/><line x1="550" y1="120" x2="550" y2="170" stroke="#c73e2e" stroke-width="2"  stroke-linecap="round"/><rect x="541" y="130" width="18" height="25" rx="1.5" fill="#c73e2e"/><rect x="536" y="112" width="28" height="66" rx="4" fill="none" stroke="#a3690f" stroke-width="1.5" stroke-dasharray="4 3"/><text x="530" y="230" font-size="13" fill="#a3690f" text-anchor="middle" font-weight="700" font-family="Hiragino Sans, Noto Sans JP, Meiryo, sans-serif">はらみ足</text><text x="530" y="252" font-size="12" fill="#57606e" text-anchor="middle"  font-family="Hiragino Sans, Noto Sans JP, Meiryo, sans-serif">前の実体の内側に収まる</text><text x="530" y="270" font-size="12" fill="#57606e" text-anchor="middle"  font-family="Hiragino Sans, Noto Sans JP, Meiryo, sans-serif">勢いの一服・迷い</text><line x1="240" y1="40" x2="240" y2="280" stroke="#dde3ec" stroke-width="1"  stroke-linecap="round"/><line x1="460" y1="40" x2="460" y2="280" stroke="#dde3ec" stroke-width="1"  stroke-linecap="round"/>
</svg>