<svg xmlns="http://www.w3.org/2000/svg" viewBox="0 0 640 305" role="img">
<rect width="640" height="305" fill="#ffffff"/>
<line x1="0" y1="61" x2="640" y2="61" stroke="#dde3ec" stroke-width="1"  stroke-linecap="round"/><line x1="0" y1="122" x2="640" y2="122" stroke="#dde3ec" stroke-width="1"  stroke-linecap="round"/><line x1="0" y1="183" x2="640" y2="183" stroke="#dde3ec" stroke-width="1"  stroke-linecap="round"/><line x1="0" y1="244" x2="640" y2="244" stroke="#dde3ec" stroke-width="1"  stroke-linecap="round"/>
<text x="320" y="24" font-size="12.5" fill="#26313f" text-anchor="middle" font-weight="700" font-family="Hiragino Sans, Noto Sans JP, Meiryo, sans-serif">リトレースメント：上昇幅の何割まで押したかを測る</text><line x1="80" y1="78" x2="560" y2="78" stroke="#a3690f" stroke-width="1.5" stroke-dasharray="6 4" stroke-linecap="round"/><text x="568" y="82" font-size="10" fill="#a3690f" text-anchor="start"  font-family="Hiragino Sans, Noto Sans JP, Meiryo, sans-serif">0%（高値）</text><line x1="80" y1="120" x2="560" y2="120" stroke="#a3690f" stroke-width="1.5" stroke-dasharray="6 4" stroke-linecap="round"/><text x="568" y="124" font-size="10" fill="#a3690f" text-anchor="start"  font-family="Hiragino Sans, Noto Sans JP, Meiryo, sans-serif">23.6%</text><line x1="80" y1="146" x2="560" y2="146" stroke="#a3690f" stroke-width="1.5" stroke-dasharray="6 4" stroke-linecap="round"/><text x="568" y="150" font-size="10" fill="#a3690f" text-anchor="start"  font-family="Hiragino Sans, Noto Sans JP, Meiryo, sans-serif">38.2%</text><line x1="80" y1="167" x2="560" y2="167" stroke="#a3690f" stroke-width="1.5" stroke-dasharray="6 4" stroke-linecap="round"/><text x="568" y="171" font-size="10" fill="#a3690f" text-anchor="start"  font-family="Hiragino Sans, Noto Sans JP, Meiryo, sans-serif">50%</text><line x1="80" y1="188" x2="560" y2="188" stroke="#a3690f" stroke-width="1.5" stroke-dasharray="6 4" stroke-linecap="round"/><text x="568" y="192" font-size="10" fill="#a3690f" text-anchor="start"  font-family="Hiragino Sans, Noto Sans JP, Meiryo, sans-serif">61.8%</text><line x1="80" y1="255" x2="560" y2="255" stroke="#a3690f" stroke-width="1.5" stroke-dasharray="6 4" stroke-linecap="round"/><text x="568" y="259" font-size="10" fill="#a3690f" text-anchor="start"  font-family="Hiragino Sans, Noto Sans JP, Meiryo, sans-serif">100%（安値）</text><polyline points="90,255 150,215 200,230 260,160 320,78 370,110 400,148 430,138 470,100 530,60" fill="none" stroke="#26313f" stroke-width="2.5"  stroke-linejoin="round" stroke-linecap="round"/><line x1="405" y1="200" x2="405" y2="158" stroke="#c73e2e" stroke-width="2"  stroke-linecap="round"/><polygon points="405,158 408.9146898070011,166.1040239211741 401.0853101929989,166.1040239211741" fill="#c73e2e"/><text x="415" y="215" font-size="10" fill="#57606e" text-anchor="start"  font-family="Hiragino Sans, Noto Sans JP, Meiryo, sans-serif">38.2%押しで下げ止まり再上昇（の一例）</text><text x="320" y="292" font-size="10.5" fill="#57606e" text-anchor="middle"  font-family="Hiragino Sans, Noto Sans JP, Meiryo, sans-serif">38.2・50・61.8%は「広く意識される目安」であり、そこで止まることを保証する水準ではない（模式図）</text>
</svg>