<svg xmlns="http://www.w3.org/2000/svg" viewBox="0 0 640 310" role="img">
<rect width="640" height="310" fill="#ffffff"/>
<line x1="0" y1="62" x2="640" y2="62" stroke="#dde3ec" stroke-width="1"  stroke-linecap="round"/><line x1="0" y1="124" x2="640" y2="124" stroke="#dde3ec" stroke-width="1"  stroke-linecap="round"/><line x1="0" y1="186" x2="640" y2="186" stroke="#dde3ec" stroke-width="1"  stroke-linecap="round"/><line x1="0" y1="248" x2="640" y2="248" stroke="#dde3ec" stroke-width="1"  stroke-linecap="round"/>
<polyline points="40,280 70,180 95,90" fill="none" stroke="#c73e2e" stroke-width="3"  stroke-linejoin="round" stroke-linecap="round"/><polyline points="95,90 125,110 150,100 180,122 205,112 230,132" fill="none" stroke="#26313f" stroke-width="2"  stroke-linejoin="round" stroke-linecap="round"/><polyline points="95,85 235,118" fill="none" stroke="#a3690f" stroke-width="1.5" stroke-dasharray="4 3" stroke-linejoin="round" stroke-linecap="round"/><polyline points="112,122 242,148" fill="none" stroke="#a3690f" stroke-width="1.5" stroke-dasharray="4 3" stroke-linejoin="round" stroke-linecap="round"/><line x1="230" y1="120" x2="265" y2="55" stroke="#c73e2e" stroke-width="2.5"  stroke-linecap="round"/><polygon points="265,55 264.6046549333242,63.991312600407966 257.71111245287545,60.27940511093558" fill="#c73e2e"/><text x="150" y="292" font-size="12.5" fill="#26313f" text-anchor="middle" font-weight="700" font-family="Hiragino Sans, Noto Sans JP, Meiryo, sans-serif">フラッグ（平行四辺形の小休止）</text><text x="70" y="120" font-size="12.5" fill="#c73e2e" text-anchor="start" font-weight="700" font-family="Hiragino Sans, Noto Sans JP, Meiryo, sans-serif">旗竿</text><polyline points="360,280 390,175 415,85" fill="none" stroke="#c73e2e" stroke-width="3"  stroke-linejoin="round" stroke-linecap="round"/><polyline points="415,85 445,125 470,100 495,120 515,108" fill="none" stroke="#26313f" stroke-width="2"  stroke-linejoin="round" stroke-linecap="round"/><polyline points="415,80 525,106" fill="none" stroke="#a3690f" stroke-width="1.5" stroke-dasharray="4 3" stroke-linejoin="round" stroke-linecap="round"/><polyline points="415,140 525,112" fill="none" stroke="#a3690f" stroke-width="1.5" stroke-dasharray="4 3" stroke-linejoin="round" stroke-linecap="round"/><line x1="520" y1="105" x2="555" y2="45" stroke="#c73e2e" stroke-width="2.5"  stroke-linecap="round"/><polygon points="555,45 554.2980436148159,53.97258364314869 547.5351906971166,50.02758610782405" fill="#c73e2e"/><text x="470" y="292" font-size="12.5" fill="#26313f" text-anchor="middle" font-weight="700" font-family="Hiragino Sans, Noto Sans JP, Meiryo, sans-serif">ペナント（小さな三角形）</text><line x1="320" y1="40" x2="320" y2="270" stroke="#dde3ec" stroke-width="1"  stroke-linecap="round"/>
</svg>