<svg xmlns="http://www.w3.org/2000/svg" viewBox="0 0 640 300" role="img">
<rect width="640" height="300" fill="#ffffff"/>
<line x1="0" y1="60" x2="640" y2="60" stroke="#dde3ec" stroke-width="1"  stroke-linecap="round"/><line x1="0" y1="120" x2="640" y2="120" stroke="#dde3ec" stroke-width="1"  stroke-linecap="round"/><line x1="0" y1="180" x2="640" y2="180" stroke="#dde3ec" stroke-width="1"  stroke-linecap="round"/><line x1="0" y1="240" x2="640" y2="240" stroke="#dde3ec" stroke-width="1"  stroke-linecap="round"/>
<polyline points="30,200 90,210 150,190 210,150 280,110" fill="none" stroke="#0075c2" stroke-width="2.5"  stroke-linejoin="round" stroke-linecap="round"/><polyline points="30,160 90,165 150,168 210,168 280,160" fill="none" stroke="#a3690f" stroke-width="2.5"  stroke-linejoin="round" stroke-linecap="round"/><circle cx="182" cy="172" r="9" fill="none" stroke="#c73e2e" stroke-width="2.5"/><text x="155" y="250" font-size="13" fill="#c73e2e" text-anchor="middle" font-weight="700" font-family="Hiragino Sans, Noto Sans JP, Meiryo, sans-serif">ゴールデンクロス</text><text x="155" y="272" font-size="11.5" fill="#57606e" text-anchor="middle"  font-family="Hiragino Sans, Noto Sans JP, Meiryo, sans-serif">短期線が長期線を上抜け＝買い基調の目安</text><polyline points="340,110 400,100 460,130 520,170 590,210" fill="none" stroke="#0075c2" stroke-width="2.5"  stroke-linejoin="round" stroke-linecap="round"/><polyline points="340,150 400,148 460,146 520,148 590,155" fill="none" stroke="#a3690f" stroke-width="2.5"  stroke-linejoin="round" stroke-linecap="round"/><circle cx="488" cy="148" r="9" fill="none" stroke="#0075c2" stroke-width="2.5"/><text x="495" y="250" font-size="13" fill="#0075c2" text-anchor="middle" font-weight="700" font-family="Hiragino Sans, Noto Sans JP, Meiryo, sans-serif">デッドクロス</text><text x="495" y="272" font-size="11.5" fill="#57606e" text-anchor="middle"  font-family="Hiragino Sans, Noto Sans JP, Meiryo, sans-serif">短期線が長期線を下抜け＝売り基調の目安</text><line x1="320" y1="40" x2="320" y2="280" stroke="#dde3ec" stroke-width="1"  stroke-linecap="round"/><text x="150" y="60" font-size="12" fill="#0075c2" text-anchor="start"  font-family="Hiragino Sans, Noto Sans JP, Meiryo, sans-serif">─ 短期線</text><text x="230" y="60" font-size="12" fill="#a3690f" text-anchor="start"  font-family="Hiragino Sans, Noto Sans JP, Meiryo, sans-serif">─ 長期線</text>
</svg>