<svg xmlns="http://www.w3.org/2000/svg" viewBox="0 0 640 305" role="img">
<rect width="640" height="305" fill="#ffffff"/>
<line x1="0" y1="61" x2="640" y2="61" stroke="#dde3ec" stroke-width="1"  stroke-linecap="round"/><line x1="0" y1="122" x2="640" y2="122" stroke="#dde3ec" stroke-width="1"  stroke-linecap="round"/><line x1="0" y1="183" x2="640" y2="183" stroke="#dde3ec" stroke-width="1"  stroke-linecap="round"/><line x1="0" y1="244" x2="640" y2="244" stroke="#dde3ec" stroke-width="1"  stroke-linecap="round"/>
<polyline points="40,200 120,195 200,180 280,160 360,140 440,125 520,115 600,108" fill="none" stroke="#a3690f" stroke-width="2.5"  stroke-linejoin="round" stroke-linecap="round"/><text x="560" y="95" font-size="12" fill="#a3690f" text-anchor="start"  font-family="Hiragino Sans, Noto Sans JP, Meiryo, sans-serif">移動平均線</text><polyline points="40,240 90,215 130,185 170,150 210,175 250,150 290,120 330,95 370,130 410,118 450,80 490,110 530,132 570,100 600,70" fill="none" stroke="#26313f" stroke-width="2"  stroke-linejoin="round" stroke-linecap="round"/><circle cx="130" cy="185" r="8" fill="none" stroke="#c73e2e" stroke-width="2.2"/><text x="130" y="213" font-size="11" fill="#c73e2e" text-anchor="middle" font-weight="700" font-family="Hiragino Sans, Noto Sans JP, Meiryo, sans-serif">①上抜け</text><circle cx="210" cy="177" r="8" fill="none" stroke="#c73e2e" stroke-width="2.2"/><text x="210" y="205" font-size="11" fill="#c73e2e" text-anchor="middle" font-weight="700" font-family="Hiragino Sans, Noto Sans JP, Meiryo, sans-serif">②押し目</text><circle cx="370" cy="132" r="8" fill="none" stroke="#c73e2e" stroke-width="2.2"/><text x="370" y="160" font-size="11" fill="#c73e2e" text-anchor="middle" font-weight="700" font-family="Hiragino Sans, Noto Sans JP, Meiryo, sans-serif">③反発</text><circle cx="530" cy="136" r="8" fill="none" stroke="#c73e2e" stroke-width="2.2"/><text x="530" y="164" font-size="11" fill="#c73e2e" text-anchor="middle" font-weight="700" font-family="Hiragino Sans, Noto Sans JP, Meiryo, sans-serif">④乖離後の戻り</text><text x="320" y="290" font-size="11.5" fill="#57606e" text-anchor="middle"  font-family="Hiragino Sans, Noto Sans JP, Meiryo, sans-serif">グランビルの買い4局面（売りはこの逆の4局面）。移動平均線と価格の位置関係で整理する</text>
</svg>