<svg xmlns="http://www.w3.org/2000/svg" viewBox="0 0 640 290" role="img">
<rect width="640" height="290" fill="#ffffff"/>
<line x1="0" y1="58" x2="640" y2="58" stroke="#dde3ec" stroke-width="1"  stroke-linecap="round"/><line x1="0" y1="116" x2="640" y2="116" stroke="#dde3ec" stroke-width="1"  stroke-linecap="round"/><line x1="0" y1="174" x2="640" y2="174" stroke="#dde3ec" stroke-width="1"  stroke-linecap="round"/><line x1="0" y1="232" x2="640" y2="232" stroke="#dde3ec" stroke-width="1"  stroke-linecap="round"/>
<polyline points="40,200 110,180 180,195 250,160 320,170 390,140 460,150 530,115 590,100" fill="none" stroke="#26313f" stroke-width="2.5"  stroke-linejoin="round" stroke-linecap="round"/><polyline points="40,207 110,187 180,202 250,167 320,177 390,147 460,157 530,122 590,107" fill="none" stroke="#c73e2e" stroke-width="2.5" stroke-dasharray="6 3" stroke-linejoin="round" stroke-linecap="round"/><text x="560" y="85" font-size="12.5" fill="#26313f" text-anchor="end" font-weight="700" font-family="Hiragino Sans, Noto Sans JP, Meiryo, sans-serif">市場平均（指数）</text><text x="560" y="130" font-size="12" fill="#c73e2e" text-anchor="end"  font-family="Hiragino Sans, Noto Sans JP, Meiryo, sans-serif">インデックスファンド（指数に連動）</text><text x="320" y="250" font-size="12.5" fill="#26313f" text-anchor="middle" font-weight="700" font-family="Hiragino Sans, Noto Sans JP, Meiryo, sans-serif">個別銘柄を選ばず「市場全体の平均点」を低コストで取りにいく考え方</text><text x="320" y="272" font-size="11.5" fill="#57606e" text-anchor="middle"  font-family="Hiragino Sans, Noto Sans JP, Meiryo, sans-serif">例: TOPIX・日経平均・S&P500 などの指数に連動する投資信託・ETF</text>
</svg>