<svg xmlns="http://www.w3.org/2000/svg" viewBox="0 0 640 305" role="img">
<rect width="640" height="305" fill="#ffffff"/>
<line x1="0" y1="61" x2="640" y2="61" stroke="#dde3ec" stroke-width="1"  stroke-linecap="round"/><line x1="0" y1="122" x2="640" y2="122" stroke="#dde3ec" stroke-width="1"  stroke-linecap="round"/><line x1="0" y1="183" x2="640" y2="183" stroke="#dde3ec" stroke-width="1"  stroke-linecap="round"/><line x1="0" y1="244" x2="640" y2="244" stroke="#dde3ec" stroke-width="1"  stroke-linecap="round"/>
<text x="320" y="24" font-size="12.5" fill="#26313f" text-anchor="middle" font-weight="700" font-family="Hiragino Sans, Noto Sans JP, Meiryo, sans-serif">アイランドリバーサル：窓で孤立した「島」ができる反転形</text><line x1="90" y1="200" x2="90" y2="255" stroke="#c73e2e" stroke-width="2"  stroke-linecap="round"/><rect x="82.5" y="210" width="15" height="40" rx="1.5" fill="#c73e2e"/><line x1="125" y1="175" x2="125" y2="230" stroke="#c73e2e" stroke-width="2"  stroke-linecap="round"/><rect x="117.5" y="185" width="15" height="40" rx="1.5" fill="#c73e2e"/><line x1="160" y1="150" x2="160" y2="205" stroke="#c73e2e" stroke-width="2"  stroke-linecap="round"/><rect x="152.5" y="160" width="15" height="40" rx="1.5" fill="#c73e2e"/><line x1="195" y1="130" x2="195" y2="182" stroke="#c73e2e" stroke-width="2"  stroke-linecap="round"/><rect x="187.5" y="140" width="15" height="38" rx="1.5" fill="#c73e2e"/><line x1="265" y1="75" x2="265" y2="110" stroke="#c73e2e" stroke-width="2"  stroke-linecap="round"/><rect x="257.5" y="85" width="15" height="20" rx="1.5" fill="#c73e2e"/><line x1="300" y1="65" x2="300" y2="105" stroke="#0075c2" stroke-width="2"  stroke-linecap="round"/><rect x="292.5" y="92" width="15" height="8" rx="1.5" fill="#0075c2"/><line x1="335" y1="70" x2="335" y2="103" stroke="#0075c2" stroke-width="2"  stroke-linecap="round"/><rect x="327.5" y="88" width="15" height="10" rx="1.5" fill="#0075c2"/><line x1="405" y1="135" x2="405" y2="190" stroke="#0075c2" stroke-width="2"  stroke-linecap="round"/><rect x="397.5" y="165" width="15" height="20" rx="1.5" fill="#0075c2"/><line x1="440" y1="165" x2="440" y2="220" stroke="#0075c2" stroke-width="2"  stroke-linecap="round"/><rect x="432.5" y="195" width="15" height="20" rx="1.5" fill="#0075c2"/><line x1="475" y1="190" x2="475" y2="250" stroke="#0075c2" stroke-width="2"  stroke-linecap="round"/><rect x="467.5" y="220" width="15" height="25" rx="1.5" fill="#0075c2"/><rect x="240" y="55" width="120" height="65" rx="8" fill="none" stroke="#a3690f" stroke-width="2" stroke-dasharray="6 4"/><text x="300" y="48" font-size="11" fill="#a3690f" text-anchor="middle" font-weight="700" font-family="Hiragino Sans, Noto Sans JP, Meiryo, sans-serif">島（アイランド）</text><text x="228" y="132" font-size="11" fill="#c73e2e" text-anchor="middle" font-weight="700" font-family="Hiragino Sans, Noto Sans JP, Meiryo, sans-serif">窓↑</text><text x="372" y="132" font-size="11" fill="#0075c2" text-anchor="middle" font-weight="700" font-family="Hiragino Sans, Noto Sans JP, Meiryo, sans-serif">窓↓</text><text x="320" y="292" font-size="10.5" fill="#57606e" text-anchor="middle"  font-family="Hiragino Sans, Noto Sans JP, Meiryo, sans-serif">上放れの窓と下放れの窓に挟まれ、高値圏の数本が孤立する。買い方の総退却を映す反転サインとされる（模式図）</text>
</svg>