<svg xmlns="http://www.w3.org/2000/svg" viewBox="0 0 640 310" role="img">
<rect width="640" height="310" fill="#ffffff"/>
<line x1="0" y1="62" x2="640" y2="62" stroke="#dde3ec" stroke-width="1"  stroke-linecap="round"/><line x1="0" y1="124" x2="640" y2="124" stroke="#dde3ec" stroke-width="1"  stroke-linecap="round"/><line x1="0" y1="186" x2="640" y2="186" stroke="#dde3ec" stroke-width="1"  stroke-linecap="round"/><line x1="0" y1="248" x2="640" y2="248" stroke="#dde3ec" stroke-width="1"  stroke-linecap="round"/>
<polyline points="30,150 110,158 190,168 270,172 350,168 430,155 510,138 610,118" fill="none" stroke="#a3690f" stroke-width="2.5"  stroke-linejoin="round" stroke-linecap="round"/><polyline points="30,220 110,235 190,225 270,195 350,150 430,115 510,92 610,70" fill="none" stroke="#0075c2" stroke-width="2.5"  stroke-linejoin="round" stroke-linecap="round"/><text x="545" y="132" font-size="13" fill="#a3690f" text-anchor="start" font-weight="700" font-family="Hiragino Sans, Noto Sans JP, Meiryo, sans-serif">長期線</text><text x="545" y="62" font-size="13" fill="#0075c2" text-anchor="start" font-weight="700" font-family="Hiragino Sans, Noto Sans JP, Meiryo, sans-serif">短期線</text><circle cx="312" cy="170" r="10" fill="none" stroke="#c73e2e" stroke-width="2.5"/><line x1="312" y1="245" x2="312" y2="186" stroke="#c73e2e" stroke-width="2.5"  stroke-linecap="round"/><polygon points="312,186 315.9146898070011,194.1040239211741 308.0853101929989,194.1040239211741" fill="#c73e2e"/><text x="312" y="268" font-size="13" fill="#c73e2e" text-anchor="middle" font-weight="700" font-family="Hiragino Sans, Noto Sans JP, Meiryo, sans-serif">ゴールデンクロス（短期線が長期線を上抜け）</text><text x="320" y="30" font-size="12" fill="#57606e" text-anchor="middle"  font-family="Hiragino Sans, Noto Sans JP, Meiryo, sans-serif">※逆に短期線が長期線を下抜ける形がデッドクロス</text>
</svg>