<svg xmlns="http://www.w3.org/2000/svg" viewBox="0 0 640 315" role="img">
<rect width="640" height="315" fill="#ffffff"/>
<line x1="0" y1="63" x2="640" y2="63" stroke="#dde3ec" stroke-width="1"  stroke-linecap="round"/><line x1="0" y1="126" x2="640" y2="126" stroke="#dde3ec" stroke-width="1"  stroke-linecap="round"/><line x1="0" y1="189" x2="640" y2="189" stroke="#dde3ec" stroke-width="1"  stroke-linecap="round"/><line x1="0" y1="252" x2="640" y2="252" stroke="#dde3ec" stroke-width="1"  stroke-linecap="round"/>
<text x="320" y="26" font-size="13" fill="#26313f" text-anchor="middle" font-weight="700" font-family="Hiragino Sans, Noto Sans JP, Meiryo, sans-serif">バブルの5段階モデル（キンドルバーガー＝ミンスキー・モデル）</text><rect x="40" y="55" width="102" height="90" rx="8" fill="#ffffff" stroke="#2b4a8b" stroke-width="2"/><text x="91" y="82" font-size="12" fill="#2b4a8b" text-anchor="middle" font-weight="700" font-family="Hiragino Sans, Noto Sans JP, Meiryo, sans-serif">① 転換点</text><text x="91" y="106" font-size="9.5" fill="#57606e" text-anchor="middle"  font-family="Hiragino Sans, Noto Sans JP, Meiryo, sans-serif">新技術</text><text x="91" y="122" font-size="9.5" fill="#57606e" text-anchor="middle"  font-family="Hiragino Sans, Noto Sans JP, Meiryo, sans-serif">新制度の登場</text><line x1="144" y1="100" x2="156" y2="100" stroke="#57606e" stroke-width="2"  stroke-linecap="round"/><polygon points="156,100 147.8959760788259,103.91468980700107 147.8959760788259,96.08531019299893" fill="#57606e"/><rect x="158" y="55" width="102" height="90" rx="8" fill="#ffffff" stroke="#1f6e50" stroke-width="2"/><text x="209" y="82" font-size="12" fill="#1f6e50" text-anchor="middle" font-weight="700" font-family="Hiragino Sans, Noto Sans JP, Meiryo, sans-serif">② 信用膨張</text><text x="209" y="106" font-size="9.5" fill="#57606e" text-anchor="middle"  font-family="Hiragino Sans, Noto Sans JP, Meiryo, sans-serif">カネ余り</text><text x="209" y="122" font-size="9.5" fill="#57606e" text-anchor="middle"  font-family="Hiragino Sans, Noto Sans JP, Meiryo, sans-serif">借入で買う</text><line x1="262" y1="100" x2="274" y2="100" stroke="#57606e" stroke-width="2"  stroke-linecap="round"/><polygon points="274,100 265.8959760788259,103.91468980700107 265.8959760788259,96.08531019299893" fill="#57606e"/><rect x="276" y="55" width="102" height="90" rx="8" fill="#ffffff" stroke="#a3690f" stroke-width="2"/><text x="327" y="82" font-size="12" fill="#a3690f" text-anchor="middle" font-weight="700" font-family="Hiragino Sans, Noto Sans JP, Meiryo, sans-serif">③ 陶酔</text><text x="327" y="106" font-size="9.5" fill="#57606e" text-anchor="middle"  font-family="Hiragino Sans, Noto Sans JP, Meiryo, sans-serif">「今回は違う」の大合唱</text><line x1="380" y1="100" x2="392" y2="100" stroke="#57606e" stroke-width="2"  stroke-linecap="round"/><polygon points="392,100 383.8959760788259,103.91468980700107 383.8959760788259,96.08531019299893" fill="#57606e"/><rect x="394" y="55" width="102" height="90" rx="8" fill="#ffffff" stroke="#6b4fa0" stroke-width="2"/><text x="445" y="82" font-size="12" fill="#6b4fa0" text-anchor="middle" font-weight="700" font-family="Hiragino Sans, Noto Sans JP, Meiryo, sans-serif">④ 利益確定</text><text x="445" y="106" font-size="9.5" fill="#57606e" text-anchor="middle"  font-family="Hiragino Sans, Noto Sans JP, Meiryo, sans-serif">内部者</text><text x="445" y="122" font-size="9.5" fill="#57606e" text-anchor="middle"  font-family="Hiragino Sans, Noto Sans JP, Meiryo, sans-serif">賢いカネが売る</text><line x1="498" y1="100" x2="510" y2="100" stroke="#57606e" stroke-width="2"  stroke-linecap="round"/><polygon points="510,100 501.8959760788259,103.91468980700107 501.8959760788259,96.08531019299893" fill="#57606e"/><rect x="512" y="55" width="102" height="90" rx="8" fill="#ffffff" stroke="#c73e2e" stroke-width="2"/><text x="563" y="82" font-size="12" fill="#c73e2e" text-anchor="middle" font-weight="700" font-family="Hiragino Sans, Noto Sans JP, Meiryo, sans-serif">⑤ パニック</text><text x="563" y="106" font-size="9.5" fill="#57606e" text-anchor="middle"  font-family="Hiragino Sans, Noto Sans JP, Meiryo, sans-serif">我先の売り</text><text x="563" y="122" font-size="9.5" fill="#57606e" text-anchor="middle"  font-family="Hiragino Sans, Noto Sans JP, Meiryo, sans-serif">信用収縮</text><polyline points="60,250 170,235 280,200 370,155 430,175 520,260 580,275" fill="none" stroke="#26313f" stroke-width="2"  stroke-linejoin="round" stroke-linecap="round"/><text x="320" y="300" font-size="11" fill="#57606e" text-anchor="middle"  font-family="Hiragino Sans, Noto Sans JP, Meiryo, sans-serif">17世紀のチューリップから現代まで、対象は変われど段階の骨格は繰り返し観察されてきた</text>
</svg>