<svg xmlns="http://www.w3.org/2000/svg" viewBox="0 0 640 295" role="img">
<rect width="640" height="295" fill="#ffffff"/>
<line x1="0" y1="59" x2="640" y2="59" stroke="#dde3ec" stroke-width="1"  stroke-linecap="round"/><line x1="0" y1="118" x2="640" y2="118" stroke="#dde3ec" stroke-width="1"  stroke-linecap="round"/><line x1="0" y1="177" x2="640" y2="177" stroke="#dde3ec" stroke-width="1"  stroke-linecap="round"/><line x1="0" y1="236" x2="640" y2="236" stroke="#dde3ec" stroke-width="1"  stroke-linecap="round"/>
<text x="320" y="28" font-size="13.5" fill="#26313f" text-anchor="middle" font-weight="700" font-family="Hiragino Sans, Noto Sans JP, Meiryo, sans-serif">バックテストの罠：過去に完璧なほど、未来に弱い</text><line x1="320" y1="55" x2="320" y2="265" stroke="#dde3ec" stroke-width="1.5" stroke-dasharray="4 3" stroke-linecap="round"/><text x="180" y="70" font-size="12" fill="#57606e" text-anchor="middle"  font-family="Hiragino Sans, Noto Sans JP, Meiryo, sans-serif">検証期間（インサンプル）</text><text x="465" y="70" font-size="12" fill="#57606e" text-anchor="middle"  font-family="Hiragino Sans, Noto Sans JP, Meiryo, sans-serif">実運用（アウトオブサンプル）</text><polyline points="50,240 100,220 150,195 200,165 250,130 315,90" fill="none" stroke="#c73e2e" stroke-width="3"  stroke-linejoin="round" stroke-linecap="round"/><polyline points="325,90 370,115 420,105 470,150 520,185 580,230" fill="none" stroke="#0075c2" stroke-width="3"  stroke-linejoin="round" stroke-linecap="round"/><text x="150" y="260" font-size="11.5" fill="#57606e" text-anchor="middle"  font-family="Hiragino Sans, Noto Sans JP, Meiryo, sans-serif">パラメータを過去に合わせ込み</text><text x="150" y="278" font-size="11.5" fill="#57606e" text-anchor="middle"  font-family="Hiragino Sans, Noto Sans JP, Meiryo, sans-serif">「完璧な成績」に見える</text><text x="470" y="260" font-size="11.5" fill="#0075c2" text-anchor="middle"  font-family="Hiragino Sans, Noto Sans JP, Meiryo, sans-serif">偶然のノイズに合わせていたため</text><text x="470" y="278" font-size="11.5" fill="#0075c2" text-anchor="middle"  font-family="Hiragino Sans, Noto Sans JP, Meiryo, sans-serif">未知のデータで崩れる</text>
</svg>