<svg xmlns="http://www.w3.org/2000/svg" viewBox="0 0 640 320" role="img">
<rect width="640" height="320" fill="#ffffff"/>
<line x1="0" y1="64" x2="640" y2="64" stroke="#dde3ec" stroke-width="1"  stroke-linecap="round"/><line x1="0" y1="128" x2="640" y2="128" stroke="#dde3ec" stroke-width="1"  stroke-linecap="round"/><line x1="0" y1="192" x2="640" y2="192" stroke="#dde3ec" stroke-width="1"  stroke-linecap="round"/><line x1="0" y1="256" x2="640" y2="256" stroke="#dde3ec" stroke-width="1"  stroke-linecap="round"/>
<text x="320" y="30" font-size="13" fill="#26313f" text-anchor="middle" font-weight="700" font-family="Hiragino Sans, Noto Sans JP, Meiryo, sans-serif">10連敗した場合の口座残高（1回の損失を残高の◯%に固定・理論値）</text><polyline points="60,70 110,73.80000000000001 160,77.52400000000003 210,81.17352000000002 260,84.75004960000004 310,88.25504860800001 360,91.68994763584001 410,95.05614868312321 460,98.35502570946076 510,101.58792519527154 560,104.75616669136613" fill="none" stroke="#c73e2e" stroke-width="3"  stroke-linejoin="round" stroke-linecap="round"/><polyline points="60,70 110,89 160,106.1 210,121.49000000000001 260,135.341 310,147.80689999999998 360,159.02621 410,169.12358899999998 460,178.21123009999997 510,186.39010709 560,193.75109638099997" fill="none" stroke="#0075c2" stroke-width="3"  stroke-linejoin="round" stroke-linecap="round"/><text x="575" y="94.75616669136613" font-size="12.5" fill="#c73e2e" text-anchor="end" font-weight="700" font-family="Hiragino Sans, Noto Sans JP, Meiryo, sans-serif">2%固定 → 残高82%</text><text x="575" y="213.75109638099997" font-size="12.5" fill="#0075c2" text-anchor="end" font-weight="700" font-family="Hiragino Sans, Noto Sans JP, Meiryo, sans-serif">10%固定 → 残高35%</text><line x1="60" y1="260" x2="580" y2="260" stroke="#26313f" stroke-width="1.5"  stroke-linecap="round"/><text x="60" y="280" font-size="11" fill="#57606e" text-anchor="middle"  font-family="Hiragino Sans, Noto Sans JP, Meiryo, sans-serif">0敗</text><text x="160" y="280" font-size="11" fill="#57606e" text-anchor="middle"  font-family="Hiragino Sans, Noto Sans JP, Meiryo, sans-serif">2敗</text><text x="260" y="280" font-size="11" fill="#57606e" text-anchor="middle"  font-family="Hiragino Sans, Noto Sans JP, Meiryo, sans-serif">4敗</text><text x="360" y="280" font-size="11" fill="#57606e" text-anchor="middle"  font-family="Hiragino Sans, Noto Sans JP, Meiryo, sans-serif">6敗</text><text x="460" y="280" font-size="11" fill="#57606e" text-anchor="middle"  font-family="Hiragino Sans, Noto Sans JP, Meiryo, sans-serif">8敗</text><text x="560" y="280" font-size="11" fill="#57606e" text-anchor="middle"  font-family="Hiragino Sans, Noto Sans JP, Meiryo, sans-serif">10敗</text><text x="320" y="305" font-size="12" fill="#57606e" text-anchor="middle"  font-family="Hiragino Sans, Noto Sans JP, Meiryo, sans-serif">1回のリスクを小さく保つほど、連敗しても再起できる資金が残る</text>
</svg>