<svg xmlns="http://www.w3.org/2000/svg" viewBox="0 0 640 310" role="img">
<rect width="640" height="310" fill="#ffffff"/>
<line x1="0" y1="62" x2="640" y2="62" stroke="#dde3ec" stroke-width="1"  stroke-linecap="round"/><line x1="0" y1="124" x2="640" y2="124" stroke="#dde3ec" stroke-width="1"  stroke-linecap="round"/><line x1="0" y1="186" x2="640" y2="186" stroke="#dde3ec" stroke-width="1"  stroke-linecap="round"/><line x1="0" y1="248" x2="640" y2="248" stroke="#dde3ec" stroke-width="1"  stroke-linecap="round"/>
<polyline points="30,285 110,250 190,215 270,190 350,165 430,140 510,115 590,90" fill="none" stroke="#a3690f" stroke-width="2.5"  stroke-linejoin="round" stroke-linecap="round"/><polyline points="30,260 80,200 120,225 170,150 210,180 240,195 270,205 310,130 360,160 390,175 430,90 480,120 530,135 590,55" fill="none" stroke="#26313f" stroke-width="2.5"  stroke-linejoin="round" stroke-linecap="round"/><text x="540" y="100" font-size="13" fill="#a3690f" text-anchor="start"  font-family="Hiragino Sans, Noto Sans JP, Meiryo, sans-serif">移動平均線</text><circle cx="270" cy="205" r="7" fill="none" stroke="#c73e2e" stroke-width="2"/><circle cx="390" cy="175" r="7" fill="none" stroke="#c73e2e" stroke-width="2"/><circle cx="530" cy="135" r="7" fill="none" stroke="#c73e2e" stroke-width="2"/><line x1="270" y1="250" x2="270" y2="218" stroke="#c73e2e" stroke-width="2.5"  stroke-linecap="round"/><polygon points="270,218 273.9146898070011,226.1040239211741 266.0853101929989,226.1040239211741" fill="#c73e2e"/><text x="240" y="275" font-size="13" fill="#c73e2e" text-anchor="start" font-weight="700" font-family="Hiragino Sans, Noto Sans JP, Meiryo, sans-serif">基準線への押しを待って買う</text><line x1="170" y1="232" x2="320" y2="232" stroke="#0075c2" stroke-width="1.5" stroke-dasharray="4 3" stroke-linecap="round"/><text x="175" y="248" font-size="12" fill="#0075c2" text-anchor="start"  font-family="Hiragino Sans, Noto Sans JP, Meiryo, sans-serif">直近安値割れ＝撤退基準</text>
</svg>