<svg xmlns="http://www.w3.org/2000/svg" viewBox="0 0 640 310" role="img">
<rect width="640" height="310" fill="#ffffff"/>
<line x1="0" y1="62" x2="640" y2="62" stroke="#dde3ec" stroke-width="1"  stroke-linecap="round"/><line x1="0" y1="124" x2="640" y2="124" stroke="#dde3ec" stroke-width="1"  stroke-linecap="round"/><line x1="0" y1="186" x2="640" y2="186" stroke="#dde3ec" stroke-width="1"  stroke-linecap="round"/><line x1="0" y1="248" x2="640" y2="248" stroke="#dde3ec" stroke-width="1"  stroke-linecap="round"/>
<polyline points="40,90 110,60 180,80 260,45 340,70 420,35 500,55 580,30" fill="none" stroke="#26313f" stroke-width="2.5"  stroke-linejoin="round" stroke-linecap="round"/><text x="50" y="30" font-size="12" fill="#26313f" text-anchor="start"  font-family="Hiragino Sans, Noto Sans JP, Meiryo, sans-serif">価格：高値を更新</text><rect x="40" y="150" width="540" height="120" fill="#f7fafd" stroke="#dde3ec"/><line x1="40" y1="180" x2="580" y2="180" stroke="#0075c2" stroke-width="1.5" stroke-dasharray="5 4" stroke-linecap="round"/><line x1="40" y1="240" x2="580" y2="240" stroke="#c73e2e" stroke-width="1.5" stroke-dasharray="5 4" stroke-linecap="round"/><text x="588" y="184" font-size="11" fill="#0075c2" text-anchor="start"  font-family="Hiragino Sans, Noto Sans JP, Meiryo, sans-serif">70</text><text x="588" y="244" font-size="11" fill="#c73e2e" text-anchor="start"  font-family="Hiragino Sans, Noto Sans JP, Meiryo, sans-serif">30</text><polyline points="40,230 110,170 180,205 260,165 340,215 420,185 500,225 580,205" fill="none" stroke="#a3690f" stroke-width="2.5"  stroke-linejoin="round" stroke-linecap="round"/><text x="50" y="165" font-size="12" fill="#a3690f" text-anchor="start" font-weight="700" font-family="Hiragino Sans, Noto Sans JP, Meiryo, sans-serif">RSI：高値が切り下がる（ダイバージェンス）</text><line x1="265" y1="160" x2="425" y2="178" stroke="#57606e" stroke-width="1"  stroke-linecap="round"/><polygon points="425,178 416.50913578402447,180.98416233906042 417.38441950123405,173.20386263053118" fill="#57606e"/><text x="320" y="296" font-size="11.5" fill="#57606e" text-anchor="middle"  font-family="Hiragino Sans, Noto Sans JP, Meiryo, sans-serif">70以上=買われすぎ・30以下=売られすぎの目安。価格と逆行する形は勢いの衰えを示すとされる</text>
</svg>