<svg xmlns="http://www.w3.org/2000/svg" viewBox="0 0 640 290" role="img">
<rect width="640" height="290" fill="#ffffff"/>
<line x1="0" y1="58" x2="640" y2="58" stroke="#dde3ec" stroke-width="1"  stroke-linecap="round"/><line x1="0" y1="116" x2="640" y2="116" stroke="#dde3ec" stroke-width="1"  stroke-linecap="round"/><line x1="0" y1="174" x2="640" y2="174" stroke="#dde3ec" stroke-width="1"  stroke-linecap="round"/><line x1="0" y1="232" x2="640" y2="232" stroke="#dde3ec" stroke-width="1"  stroke-linecap="round"/>
<text x="320" y="24" font-size="13" fill="#26313f" text-anchor="middle" font-weight="700" font-family="Hiragino Sans, Noto Sans JP, Meiryo, sans-serif">酒田五法：三山・三川・三空・三兵・三法</text><rect x="35" y="42" width="180" height="110" rx="8" fill="#ffffff" stroke="#c73e2e" stroke-width="1.8"/><text x="125" y="60" font-size="11.5" fill="#c73e2e" text-anchor="middle" font-weight="700" font-family="Hiragino Sans, Noto Sans JP, Meiryo, sans-serif">三山（さんざん）＝天井</text><polyline points="55,135 75,90 95,120 115,82 135,120 155,92 180,138" fill="none" stroke="#26313f" stroke-width="2"  stroke-linejoin="round" stroke-linecap="round"/><text x="125" y="146" font-size="9.5" fill="#57606e" text-anchor="middle"  font-family="Hiragino Sans, Noto Sans JP, Meiryo, sans-serif">三度高値に挑み失敗</text><rect x="230" y="42" width="180" height="110" rx="8" fill="#ffffff" stroke="#0075c2" stroke-width="1.8"/><text x="320" y="60" font-size="11.5" fill="#0075c2" text-anchor="middle" font-weight="700" font-family="Hiragino Sans, Noto Sans JP, Meiryo, sans-serif">三川（さんせん）＝底</text><polyline points="245,60 265,110 285,80 305,118 325,82 345,108 368,55" fill="none" stroke="#26313f" stroke-width="2"  stroke-linejoin="round" stroke-linecap="round"/><text x="320" y="146" font-size="9.5" fill="#57606e" text-anchor="middle"  font-family="Hiragino Sans, Noto Sans JP, Meiryo, sans-serif">三度安値を試して反発</text><rect x="425" y="42" width="180" height="110" rx="8" fill="#ffffff" stroke="#a3690f" stroke-width="1.8"/><text x="515" y="60" font-size="11.5" fill="#a3690f" text-anchor="middle" font-weight="700" font-family="Hiragino Sans, Noto Sans JP, Meiryo, sans-serif">三空（さんくう）＝過熱</text><line x1="455" y1="104" x2="455" y2="130" stroke="#c73e2e" stroke-width="2"  stroke-linecap="round"/><rect x="449" y="106" width="12" height="20" rx="1.5" fill="#c73e2e"/><line x1="483" y1="82" x2="483" y2="108" stroke="#c73e2e" stroke-width="2"  stroke-linecap="round"/><rect x="477" y="84" width="12" height="20" rx="1.5" fill="#c73e2e"/><line x1="511" y1="60" x2="511" y2="86" stroke="#c73e2e" stroke-width="2"  stroke-linecap="round"/><rect x="505" y="62" width="12" height="20" rx="1.5" fill="#c73e2e"/><line x1="539" y1="38" x2="539" y2="64" stroke="#c73e2e" stroke-width="2"  stroke-linecap="round"/><rect x="533" y="40" width="12" height="20" rx="1.5" fill="#c73e2e"/><text x="515" y="146" font-size="9.5" fill="#57606e" text-anchor="middle"  font-family="Hiragino Sans, Noto Sans JP, Meiryo, sans-serif">窓3つの連騰＝反動警戒</text><rect x="120" y="168" width="180" height="105" rx="8" fill="#ffffff" stroke="#1f6e50" stroke-width="1.8"/><text x="210" y="186" font-size="11.5" fill="#1f6e50" text-anchor="middle" font-weight="700" font-family="Hiragino Sans, Noto Sans JP, Meiryo, sans-serif">三兵（さんぺい）＝勢いの継続</text><line x1="165" y1="208" x2="165" y2="250" stroke="#c73e2e" stroke-width="2"  stroke-linecap="round"/><rect x="158.5" y="212" width="13" height="30" rx="1.5" fill="#c73e2e"/><line x1="195" y1="190" x2="195" y2="232" stroke="#c73e2e" stroke-width="2"  stroke-linecap="round"/><rect x="188.5" y="194" width="13" height="30" rx="1.5" fill="#c73e2e"/><line x1="225" y1="172" x2="225" y2="214" stroke="#c73e2e" stroke-width="2"  stroke-linecap="round"/><rect x="218.5" y="176" width="13" height="30" rx="1.5" fill="#c73e2e"/><text x="210" y="264" font-size="9.5" fill="#57606e" text-anchor="middle"  font-family="Hiragino Sans, Noto Sans JP, Meiryo, sans-serif">陽線（陰線）3本の連続</text><rect x="340" y="168" width="180" height="105" rx="8" fill="#ffffff" stroke="#6b4fa0" stroke-width="1.8"/><text x="430" y="186" font-size="11.5" fill="#6b4fa0" text-anchor="middle" font-weight="700" font-family="Hiragino Sans, Noto Sans JP, Meiryo, sans-serif">三法（さんぽう）＝休みも相場</text><line x1="365" y1="190" x2="365" y2="240" stroke="#0075c2" stroke-width="2"  stroke-linecap="round"/><rect x="358.5" y="195" width="13" height="40" rx="1.5" fill="#0075c2"/><line x1="392" y1="205" x2="392" y2="228" stroke="#0075c2" stroke-width="2"  stroke-linecap="round"/><rect x="387.5" y="210" width="9" height="12" rx="1.5" fill="#0075c2"/><line x1="412" y1="208" x2="412" y2="232" stroke="#0075c2" stroke-width="2"  stroke-linecap="round"/><rect x="407.5" y="214" width="9" height="12" rx="1.5" fill="#0075c2"/><line x1="432" y1="202" x2="432" y2="226" stroke="#0075c2" stroke-width="2"  stroke-linecap="round"/><rect x="427.5" y="208" width="9" height="12" rx="1.5" fill="#0075c2"/><line x1="462" y1="185" x2="462" y2="236" stroke="#c73e2e" stroke-width="2"  stroke-linecap="round"/><rect x="455.5" y="190" width="13" height="40" rx="1.5" fill="#c73e2e"/><text x="430" y="264" font-size="9.5" fill="#57606e" text-anchor="middle"  font-family="Hiragino Sans, Noto Sans JP, Meiryo, sans-serif">大きな足→小休止→再放れ</text>
</svg>