<svg xmlns="http://www.w3.org/2000/svg" viewBox="0 0 640 305" role="img">
<rect width="640" height="305" fill="#ffffff"/>
<line x1="0" y1="61" x2="640" y2="61" stroke="#dde3ec" stroke-width="1"  stroke-linecap="round"/><line x1="0" y1="122" x2="640" y2="122" stroke="#dde3ec" stroke-width="1"  stroke-linecap="round"/><line x1="0" y1="183" x2="640" y2="183" stroke="#dde3ec" stroke-width="1"  stroke-linecap="round"/><line x1="0" y1="244" x2="640" y2="244" stroke="#dde3ec" stroke-width="1"  stroke-linecap="round"/>
<polyline points="40,80 110,60 180,70 250,50 320,65 390,85 460,70 530,90 590,80" fill="none" stroke="#26313f" stroke-width="2"  stroke-linejoin="round" stroke-linecap="round"/><text x="50" y="40" font-size="11.5" fill="#57606e" text-anchor="start"  font-family="Hiragino Sans, Noto Sans JP, Meiryo, sans-serif">価格（レンジ気味の相場で機能しやすいとされる）</text><rect x="40" y="120" width="550" height="150" fill="#f7fafd" stroke="#dde3ec"/><line x1="40" y1="150" x2="590" y2="150" stroke="#0075c2" stroke-width="1.5" stroke-dasharray="5 4" stroke-linecap="round"/><line x1="40" y1="240" x2="590" y2="240" stroke="#c73e2e" stroke-width="1.5" stroke-dasharray="5 4" stroke-linecap="round"/><text x="598" y="154" font-size="11" fill="#0075c2" text-anchor="start"  font-family="Hiragino Sans, Noto Sans JP, Meiryo, sans-serif">80</text><text x="598" y="244" font-size="11" fill="#c73e2e" text-anchor="start"  font-family="Hiragino Sans, Noto Sans JP, Meiryo, sans-serif">20</text><polyline points="40,230 110,140 180,165 250,132 320,190 390,252 460,225 530,258 590,235" fill="none" stroke="#0075c2" stroke-width="2.2"  stroke-linejoin="round" stroke-linecap="round"/><polyline points="40,240 110,175 180,172 250,150 320,180 390,232 460,235 530,248 590,244" fill="none" stroke="#a3690f" stroke-width="2.2"  stroke-linejoin="round" stroke-linecap="round"/><text x="475" y="135" font-size="11" fill="#57606e" text-anchor="start"  font-family="Hiragino Sans, Noto Sans JP, Meiryo, sans-serif">─ %K　─ %D（%Kの平均）</text><circle cx="530" cy="253" r="8" fill="none" stroke="#c73e2e" stroke-width="2.2"/><text x="320" y="292" font-size="11" fill="#57606e" text-anchor="middle"  font-family="Hiragino Sans, Noto Sans JP, Meiryo, sans-serif">80以上=買われすぎ・20以下=売られすぎの目安。20以下での%K上抜けを反発の目安とする見方がある</text>
</svg>