<svg xmlns="http://www.w3.org/2000/svg" viewBox="0 0 640 310" role="img">
<rect width="640" height="310" fill="#ffffff"/>
<line x1="0" y1="62" x2="640" y2="62" stroke="#dde3ec" stroke-width="1"  stroke-linecap="round"/><line x1="0" y1="124" x2="640" y2="124" stroke="#dde3ec" stroke-width="1"  stroke-linecap="round"/><line x1="0" y1="186" x2="640" y2="186" stroke="#dde3ec" stroke-width="1"  stroke-linecap="round"/><line x1="0" y1="248" x2="640" y2="248" stroke="#dde3ec" stroke-width="1"  stroke-linecap="round"/>
<text x="320" y="26" font-size="12.5" fill="#26313f" text-anchor="middle" font-weight="700" font-family="Hiragino Sans, Noto Sans JP, Meiryo, sans-serif">損切り幅を変えると成績はどう変わるか（検証の典型的な形状）</text><polyline points="70,219.64000000000001 82,207.04 94,195.16000000000003 106,184 118,173.56 130,163.84 142,154.84000000000003 154,146.56 166,139 178,132.16 190,126.03999999999999 202,120.63999999999999 214,115.96000000000001 226,112 238,108.76 250,106.24 262,104.44 274,103.36 286,103 298,103.36 310,104.44 322,106.24 334,108.76 346,111.99999999999999 358,115.96 370,120.63999999999999 382,126.03999999999999 394,132.16 406,139 418,146.56 430,154.83999999999997 442,163.84 454,173.56 466,184 478,195.15999999999997 490,207.04 502,219.64000000000001 514,232.96 526,246.99999999999997 538,261.75999999999993 550,277.24" fill="none" stroke="#26313f" stroke-width="2.5"  stroke-linejoin="round" stroke-linecap="round"/><line x1="70" y1="220" x2="550" y2="220" stroke="#dde3ec" stroke-width="1.5"  stroke-linecap="round"/><text x="110" y="250" font-size="11.5" fill="#0075c2" text-anchor="middle" font-weight="700" font-family="Hiragino Sans, Noto Sans JP, Meiryo, sans-serif">狭すぎ：</text><text x="110" y="267" font-size="10.5" fill="#57606e" text-anchor="middle"  font-family="Hiragino Sans, Noto Sans JP, Meiryo, sans-serif">ノイズで連続ヒット</text><text x="310" y="250" font-size="11.5" fill="#c73e2e" text-anchor="middle" font-weight="700" font-family="Hiragino Sans, Noto Sans JP, Meiryo, sans-serif">適正帯：構造の外側×資金の許容内</text><text x="520" y="250" font-size="11.5" fill="#0075c2" text-anchor="middle" font-weight="700" font-family="Hiragino Sans, Noto Sans JP, Meiryo, sans-serif">広すぎ：</text><text x="520" y="267" font-size="10.5" fill="#57606e" text-anchor="middle"  font-family="Hiragino Sans, Noto Sans JP, Meiryo, sans-serif">1回の損失が重すぎる</text><text x="60" y="60" font-size="11.5" fill="#26313f" text-anchor="start"  font-family="Hiragino Sans, Noto Sans JP, Meiryo, sans-serif">総損益</text><text x="555" y="214" font-size="11" fill="#57606e" text-anchor="start"  font-family="Hiragino Sans, Noto Sans JP, Meiryo, sans-serif">損切り幅→</text><text x="320" y="295" font-size="11" fill="#57606e" text-anchor="middle"  font-family="Hiragino Sans, Noto Sans JP, Meiryo, sans-serif">最適点はピンポイントでは存在しない。「山の広い頂上付近」にいることを検証で確認する</text>
</svg>